<?xml version="1.0" encoding="utf-8"?>
<!-- Generator: Adobe Illustrator 22.0.1, SVG Export Plug-In . SVG Version: 6.00 Build 0)  -->
<svg version="1.1" id="Layer_1" xmlns="http://www.w3.org/2000/svg" xmlns:xlink="http://www.w3.org/1999/xlink" x="0px" y="0px"
	 viewBox="0 0 48 48" style="enable-background:new 0 0 48 48;" xml:space="preserve">
<style type="text/css">
	.st0{fill:#FFFFFF;}
	.st1{fill:none;}
</style>
<path class="st0" d="M6,10v28c0,2.2,1.8,4,4,4h28c2.2,0,4-1.8,4-4V10c0-2.2-1.8-4-4-4H10C7.8,6,6,7.8,6,10z M30,18c0,3.3-2.7,6-6,6
	s-6-2.7-6-6c0-3.3,2.7-6,6-6S30,14.7,30,18z M12,34c0-4,8-6.2,12-6.2S36,30,36,34v2H12V34z"/>
<path class="st1" d="M0,0h48v48H0V0z"/>
</svg>
