<?xml version="1.0" encoding="utf-8"?>
<!-- Generator: Adobe Illustrator 22.1.0, SVG Export Plug-In . SVG Version: 6.00 Build 0)  -->
<svg version="1.1" id="Layer_1" xmlns="http://www.w3.org/2000/svg" xmlns:xlink="http://www.w3.org/1999/xlink" x="0px" y="0px"
	 viewBox="0 0 48 48" style="enable-background:new 0 0 48 48;" xml:space="preserve">
<style type="text/css">
	.st0{fill:none;}
	.st1{fill:#FFFFFF;}
</style>
<path class="st0" d="M0,0h48v48H0V0z"/>
<path class="st1" d="M33,6c-3.5,0-6.8,1.6-9,4.2C21.8,7.6,18.5,6,15,6C8.8,6,4,10.8,4,17c0,7.5,6.8,13.7,17.1,23.1l2.9,2.6l2.9-2.6
	C37.2,30.7,44,24.5,44,17C44,10.8,39.2,6,33,6z M24.2,37.1L24,37.3l-0.2-0.2C14.3,28.5,8,22.8,8,17c0-4,3-7,7-7c3.1,0,6.1,2,7.1,4.7
	h3.7C26.9,12,29.9,10,33,10c4,0,7,3,7,7C40,22.8,33.7,28.5,24.2,37.1z"/>
</svg>
