<?xml version="1.0" encoding="utf-8"?>
<!-- Generator: Adobe Illustrator 22.0.1, SVG Export Plug-In . SVG Version: 6.00 Build 0)  -->
<svg version="1.1" id="Layer_1" xmlns="http://www.w3.org/2000/svg" xmlns:xlink="http://www.w3.org/1999/xlink" x="0px" y="0px"
	 viewBox="0 0 48 48" style="enable-background:new 0 0 48 48;" xml:space="preserve">
<style type="text/css">
	.st0{fill:none;}
	.st1{fill:#FFFFFF;}
</style>
<path class="st0" d="M0,0h48v48H0V0z"/>
<path class="st1" d="M24,20c-2.2,0-4,1.8-4,4s1.8,4,4,4s4-1.8,4-4S26.2,20,24,20z M38,6H10c-2.2,0-4,1.8-4,4v28c0,2.2,1.8,4,4,4h28
	c2.2,0,4-1.8,4-4V10C42,7.8,40.2,6,38,6z M34.5,24c0,0.5,0,0.9-0.1,1.4l3,2.3c0.3,0.2,0.3,0.6,0.2,0.9l-2.8,4.9
	c-0.2,0.3-0.5,0.4-0.9,0.3l-3.5-1.4c-0.7,0.6-1.5,1-2.4,1.4l-0.5,3.7c0,0.3-0.3,0.6-0.7,0.6h-5.6c-0.4,0-0.6-0.3-0.7-0.6L20,33.7
	c-0.9-0.3-1.6-0.8-2.4-1.4l-3.5,1.4c-0.3,0.1-0.7,0-0.9-0.3l-2.8-4.9c-0.2-0.3-0.1-0.7,0.2-0.9l3-2.3c-0.1-0.5-0.1-0.9-0.1-1.4
	c0-0.5,0-0.9,0.1-1.4l-3-2.3c-0.3-0.2-0.3-0.6-0.2-0.9l2.8-4.9c0.2-0.3,0.5-0.4,0.9-0.3l3.5,1.4c0.7-0.6,1.5-1,2.4-1.4l0.5-3.7
	c0-0.3,0.3-0.6,0.7-0.6h5.6c0.4,0,0.6,0.3,0.7,0.6l0.5,3.7c0.9,0.4,1.6,0.8,2.4,1.4l3.5-1.4c0.3-0.1,0.7,0,0.9,0.3l2.8,4.9
	c0.2,0.3,0.1,0.7-0.2,0.9l-3,2.3C34.5,23.1,34.5,23.5,34.5,24z"/>
</svg>
